# xmcd
#
# Track frame offsets:
#	150
#	23320
#	38079
#	48704
#	69494
#	83406
#	99573
#	116034
#	122918
#	139639
#
# Disc length: 2182 seconds
#
# Revision: 0
# Processed by: cddbd v1.5.1PL0 Copyright (c) Steve Scherf et al.
# Submitted via: dBpowerAMP V4.0
#
DISCID=7b08840a
DTITLE=Darren Johnson - Hear Nor There
DYEAR=2005
DGENRE=Blues
TTITLE0=All Night Long
TTITLE1=I've Lost You
TTITLE2=Beans and Cornbread
TTITLE3=Sarah
TTITLE4=So Long
TTITLE5=Devil Woman
TTITLE6=Small, Small Town
TTITLE7=I Like You Best
TTITLE8=Who's Got It Bad
TTITLE9=29
EXTD=
EXTT0=
EXTT1=
EXTT2=
EXTT3=
EXTT4=
EXTT5=
EXTT6=
EXTT7=
EXTT8=
EXTT9=
PLAYORDER=
